
<svg version="1.1" xmlns="http://www.w3.org/2000/svg" viewBox="0 0 600 400">
<style type="text/css">
	.st0{fill:#FFC107;}
	.st1{fill:#FFFFFF;stroke:#FFFFFF;stroke-width:50;stroke-miterlimit:10;}
</style>
<path class="st0" d="M527,75.2L299.9,302.3L72.7,75.2c-4.2-4.1-11-4-15.1,0.3c-4,4.1-4,10.7,0,14.8L292.3,325
	c4.2,4.2,10.9,4.2,15.1,0L542.1,90.3c4.2-4.1,4.4-10.8,0.3-15.1c-4.1-4.2-10.8-4.4-15.1-0.3C527.2,75,527.1,75.1,527,75.2L527,75.2z
	"/>
<path class="st1" d="M299.9,328.1c-2.8,0-5.5-1.1-7.6-3.1L57.7,90.3c-4.1-4.2-4-11,0.3-15.1c4.1-4,10.7-4,14.8,0l227.1,227.1
	L527,75.2c4.1-4.2,10.8-4.4,15.1-0.3c4.2,4.1,4.4,10.8,0.3,15.1c-0.1,0.1-0.2,0.2-0.3,0.3L307.4,324.9
	C305.4,326.9,302.7,328.1,299.9,328.1z"/>
</svg>
